<svg id="Layer_3" data-name="Layer 3" xmlns="http://www.w3.org/2000/svg" xmlns:xlink="http://www.w3.org/1999/xlink" viewBox="0 0 98 55.58"><defs><style>.cls-1{fill:url(#linear-gradient);}.cls-2{fill:url(#New_Gradient_Swatch_2);}.cls-3{fill:url(#New_Gradient_Swatch_2-2);}</style><linearGradient id="linear-gradient" x1="28.16" y1="39.6" x2="7.17" y2="0.36" gradientUnits="userSpaceOnUse"><stop offset="0" stop-color="#ad1583"/><stop offset="0.23" stop-color="#af1780"/><stop offset="0.4" stop-color="#b51e77"/><stop offset="0.55" stop-color="#bf2b67"/><stop offset="0.69" stop-color="#cd3c50"/><stop offset="0.83" stop-color="#df5233"/><stop offset="0.95" stop-color="#f56c0f"/><stop offset="1" stop-color="#ff7800"/></linearGradient><linearGradient id="New_Gradient_Swatch_2" x1="83.41" y1="46.21" x2="118.05" y2="32.84" gradientUnits="userSpaceOnUse"><stop offset="0" stop-color="#ad1583"/><stop offset="1" stop-color="#ff7800"/></linearGradient><linearGradient id="New_Gradient_Swatch_2-2" x1="60.22" y1="62.97" x2="79.99" y2="-7.65" xlink:href="#New_Gradient_Swatch_2"/></defs><title>logo</title><polygon class="cls-1" points="0 3.38 19.5 3.38 44.5 52.79 24.5 52.79 0 3.38"/><path class="cls-2" d="M63.33,42.83q-1.86-2.6-3.46-5.12a119.37,119.37,0,0,0-8.82,16.53C56.93,60.68,63.67,65.31,71,65.5c16.33,0.1,25.17-6.83,30.17-22.67H85.67S74.67,58.67,63.33,42.83Z" transform="translate(-3.17 -9.92)"/><path class="cls-3" d="M71,9.92c-7.33.19-14.07,4.82-19.95,11.26A94.07,94.07,0,0,0,39.39,37.71a169,169,0,0,0-11.56,25h20a79.86,79.86,0,0,1,3.22-8.51,119.37,119.37,0,0,1,8.82-16.53q1.61-2.52,3.46-5.12c11.33-15.83,22.33,0,22.33,0h15.5C96.17,16.75,87.33,9.82,71,9.92Z" transform="translate(-3.17 -9.92)"/></svg>
